<svg width="83" height="83" viewBox="0 0 83 83" fill="none" xmlns="http://www.w3.org/2000/svg">
<g filter="url(#filter0_d_27_7052)">
<path d="M77 41.5C77 21.8939 61.1061 6 41.5 6C21.8939 6 6 21.8939 6 41.5C6 61.1061 21.8939 77 41.5 77C61.1061 77 77 61.1061 77 41.5Z" fill="#009ADE"/>
<path d="M42.8631 26.2343C42.5971 26.0274 42.2697 25.915 41.9327 25.915C41.5957 25.915 41.2683 26.0274 41.0024 26.2343L28.5349 35.9315C27.9882 36.3568 27.5458 36.9015 27.2417 37.5238C26.9376 38.1462 26.7798 38.8298 26.7803 39.5225V53.1895C26.7803 53.9932 27.0996 54.764 27.6679 55.3323C28.2362 55.9006 29.007 56.2199 29.8108 56.2199H35.8717C36.6755 56.2199 37.4463 55.9006 38.0146 55.3323C38.5829 54.764 38.9022 53.9932 38.9022 53.1895V44.0984H44.9632V53.1895C44.9632 53.9932 45.2825 54.764 45.8508 55.3323C46.4191 55.9006 47.19 56.2199 47.9937 56.2199H54.0547C54.8584 56.2199 55.6292 55.9006 56.1975 55.3323C56.7659 54.764 57.0852 53.9932 57.0852 53.1895V39.5225C57.0853 38.8296 56.927 38.1458 56.6223 37.5234C56.3177 36.901 55.8748 36.3565 55.3275 35.9315L42.8631 26.2343Z" fill="white"/>
</g>
<defs>
<filter id="filter0_d_27_7052" x="0" y="0" width="83" height="83" filterUnits="userSpaceOnUse" color-interpolation-filters="sRGB">
<feFlood flood-opacity="0" result="BackgroundImageFix"/>
<feColorMatrix in="SourceAlpha" type="matrix" values="0 0 0 0 0 0 0 0 0 0 0 0 0 0 0 0 0 0 127 0" result="hardAlpha"/>
<feOffset/>
<feGaussianBlur stdDeviation="3"/>
<feComposite in2="hardAlpha" operator="out"/>
<feColorMatrix type="matrix" values="0 0 0 0 0.109804 0 0 0 0 0.207843 0 0 0 0 0.368627 0 0 0 0.15 0"/>
<feBlend mode="normal" in2="BackgroundImageFix" result="effect1_dropShadow_27_7052"/>
<feBlend mode="normal" in="SourceGraphic" in2="effect1_dropShadow_27_7052" result="shape"/>
</filter>
</defs>
</svg>
