<svg width="54" height="54" viewBox="0 0 54 54" fill="none" xmlns="http://www.w3.org/2000/svg">
<path d="M54 27C54 12.0883 41.9117 0 27 0C12.0883 0 0 12.0883 0 27C0 41.9117 12.0883 54 27 54C41.9117 54 54 41.9117 54 27Z" fill="#009ADE"/>
<path d="M27 43C35.8366 43 43 35.8366 43 27C43 18.1634 35.8366 11 27 11C18.1634 11 11 18.1634 11 27C11 35.8366 18.1634 43 27 43Z" fill="white"/>
<path d="M53 27C53 12.6406 41.3594 1 27 1C12.6406 1 1 12.6406 1 27C1 41.3594 12.6406 53 27 53C41.3594 53 53 41.3594 53 27Z" stroke="white" stroke-width="2"/>
</svg>
