<svg width="406" height="270" viewBox="0 0 406 270" fill="none" xmlns="http://www.w3.org/2000/svg">
<path d="M57.0137 3.13672L57.6075 218.847" stroke="#575756" stroke-width="0.5"/>
<path d="M53.3506 213.752L375.946 213.314" stroke="#575756" stroke-width="0.5"/>
<path d="M110.343 213.753L110.343 219.867" stroke="#575756" stroke-width="0.5"/>
<path d="M51.2233 189.736L57.6074 189.736" stroke="#575756" stroke-width="0.5"/>
<path d="M51.2233 166.731L57.6074 166.731" stroke="#575756" stroke-width="0.5"/>
<path d="M51.2233 143.727L57.6074 143.727" stroke="#575756" stroke-width="0.5"/>
<path d="M50.7396 120.253L57.1238 120.253" stroke="#575756" stroke-width="0.5"/>
<path d="M50.7396 96.2031L57.1238 96.2031" stroke="#575756" stroke-width="0.5"/>
<path d="M51.2233 72.7266L57.6074 72.7266" stroke="#575756" stroke-width="0.5"/>
<path d="M51.2233 49.6572L57.6074 49.6572" stroke="#575756" stroke-width="0.5"/>
<path d="M51.2233 26.6523L57.6074 26.6523" stroke="#575756" stroke-width="0.5"/>
<path d="M164.009 213.753L164.009 219.867" stroke="#575756" stroke-width="0.5"/>
<path d="M217.046 213.753L217.046 219.867" stroke="#575756" stroke-width="0.5"/>
<path d="M269.632 213.753L269.632 219.867" stroke="#575756" stroke-width="0.5"/>
<path d="M322.236 213.319L322.236 219.434" stroke="#575756" stroke-width="0.5"/>
<path d="M133.016 252.603L130.448 257.655V261.147H128.78V257.655L126.224 252.603H128.036L129.632 256.047L131.204 252.603H133.016ZM135.958 254.823C137.698 254.823 138.682 256.071 138.682 257.847V258.507H134.77C134.77 259.323 135.25 259.899 136.138 259.899C136.822 259.899 137.158 259.695 137.542 259.311L138.502 260.235C137.866 260.883 137.254 261.219 136.126 261.219C134.638 261.219 133.234 260.547 133.234 258.015C133.234 255.975 134.338 254.823 135.958 254.823ZM135.958 256.119C135.418 256.119 135.07 256.395 134.902 256.767C134.794 256.995 134.782 257.163 134.77 257.439H137.134C137.122 257.163 137.11 256.995 137.002 256.767C136.834 256.395 136.486 256.119 135.958 256.119ZM142.584 254.823C144.348 254.823 145.248 255.567 145.248 257.031V261.147H143.724V260.607C143.304 261.027 142.908 261.207 142.188 261.207C141.48 261.207 140.952 261.015 140.592 260.655C140.256 260.307 140.076 259.803 140.076 259.251C140.076 258.255 140.76 257.439 142.236 257.439H143.688V257.127C143.688 256.443 143.352 256.143 142.524 256.143C141.96 256.143 141.66 256.299 141.324 256.683L140.34 255.711C140.952 255.039 141.54 254.823 142.584 254.823ZM143.688 258.507H142.5C141.876 258.507 141.576 258.759 141.576 259.227C141.576 259.659 141.876 259.935 142.524 259.935C142.908 259.935 143.184 259.887 143.448 259.635C143.628 259.479 143.688 259.239 143.688 258.843V258.507ZM150.426 254.823C151.05 254.823 151.47 254.967 151.902 255.411L150.738 256.599C150.498 256.359 150.294 256.227 149.91 256.227C149.43 256.227 148.89 256.587 148.89 257.379V261.147H147.33V254.895H148.854V255.495C149.154 255.135 149.754 254.823 150.426 254.823ZM155.198 254.823C156.182 254.823 156.986 255.003 157.586 255.555L156.626 256.527C156.266 256.203 155.726 256.107 155.174 256.107C154.55 256.107 154.286 256.395 154.286 256.707C154.286 257.031 154.466 257.199 154.934 257.247L155.918 257.343C157.154 257.463 157.778 258.111 157.778 259.179C157.778 260.559 156.602 261.219 155.126 261.219C154.142 261.219 153.266 261.111 152.462 260.319L153.482 259.299C153.986 259.815 154.67 259.887 155.15 259.887C155.69 259.887 156.254 259.707 156.254 259.239C156.254 258.927 156.098 258.711 155.594 258.663L154.61 258.567C153.482 258.459 152.786 257.967 152.786 256.815C152.786 255.507 153.926 254.823 155.198 254.823ZM165.339 252.531C166.515 252.531 167.367 252.819 168.099 253.527L167.043 254.571C166.587 254.115 166.071 253.983 165.291 253.983C164.403 253.983 163.971 254.475 163.971 255.063C163.971 255.291 164.043 255.507 164.223 255.675C164.391 255.831 164.643 255.951 165.003 255.999L166.023 256.155C166.803 256.263 167.283 256.467 167.655 256.827C168.111 257.259 168.315 257.859 168.315 258.627C168.315 260.283 166.947 261.219 165.147 261.219C163.851 261.219 162.867 260.943 162.027 260.091L163.107 259.011C163.647 259.551 164.379 259.731 165.159 259.731C166.155 259.731 166.683 259.347 166.683 258.663C166.683 258.375 166.599 258.135 166.419 257.955C166.251 257.799 166.059 257.727 165.651 257.667L164.631 257.511C163.911 257.403 163.359 257.175 162.975 256.803C162.567 256.407 162.363 255.843 162.363 255.123C162.363 253.599 163.491 252.531 165.339 252.531ZM171.724 255.075V261.147H170.164V255.075H171.724ZM171.736 252.555V253.827H170.14V252.555H171.736ZM176.953 254.823C177.577 254.823 178.081 255.015 178.429 255.375C178.933 255.891 179.065 256.467 179.065 257.151V261.147H177.505V257.367C177.505 256.515 176.977 256.227 176.473 256.227C175.969 256.227 175.429 256.515 175.429 257.367V261.147H173.869V254.895H175.393V255.471C175.801 255.039 176.377 254.823 176.953 254.823ZM183.68 254.823C184.544 254.823 185.18 255.087 185.744 255.663L184.676 256.719C184.352 256.371 184.088 256.227 183.68 256.227C183.296 256.227 183.02 256.371 182.792 256.635C182.552 256.935 182.444 257.355 182.444 258.015C182.444 258.687 182.552 259.107 182.792 259.407C183.02 259.671 183.296 259.815 183.68 259.815C184.088 259.815 184.352 259.659 184.676 259.323L185.744 260.367C185.18 260.943 184.544 261.219 183.68 261.219C182.42 261.219 180.884 260.547 180.884 258.015C180.884 255.495 182.42 254.823 183.68 254.823ZM189.597 254.823C191.337 254.823 192.321 256.071 192.321 257.847V258.507H188.409C188.409 259.323 188.889 259.899 189.777 259.899C190.461 259.899 190.797 259.695 191.181 259.311L192.141 260.235C191.505 260.883 190.893 261.219 189.765 261.219C188.277 261.219 186.873 260.547 186.873 258.015C186.873 255.975 187.977 254.823 189.597 254.823ZM189.597 256.119C189.057 256.119 188.709 256.395 188.541 256.767C188.433 256.995 188.421 257.163 188.409 257.439H190.773C190.761 257.163 190.749 256.995 190.641 256.767C190.473 256.395 190.125 256.119 189.597 256.119ZM197.468 252.603H200.816C202.568 252.603 203.588 253.791 203.588 255.219C203.588 256.419 202.856 257.175 202.028 257.463L203.936 261.147H202.004L200.336 257.739H199.136V261.147H197.468V252.603ZM200.72 254.091H199.136V256.335H200.72C201.452 256.335 201.92 255.879 201.92 255.207C201.92 254.547 201.452 254.091 200.72 254.091ZM207.546 254.823C209.31 254.823 210.21 255.567 210.21 257.031V261.147H208.686V260.607C208.266 261.027 207.87 261.207 207.15 261.207C206.442 261.207 205.914 261.015 205.554 260.655C205.218 260.307 205.038 259.803 205.038 259.251C205.038 258.255 205.722 257.439 207.198 257.439H208.65V257.127C208.65 256.443 208.314 256.143 207.486 256.143C206.922 256.143 206.622 256.299 206.286 256.683L205.302 255.711C205.914 255.039 206.502 254.823 207.546 254.823ZM208.65 258.507H207.462C206.838 258.507 206.538 258.759 206.538 259.227C206.538 259.659 206.838 259.935 207.486 259.935C207.87 259.935 208.146 259.887 208.41 259.635C208.59 259.479 208.65 259.239 208.65 258.843V258.507ZM215.377 254.823C216.001 254.823 216.505 255.015 216.853 255.375C217.357 255.891 217.489 256.467 217.489 257.151V261.147H215.929V257.367C215.929 256.515 215.401 256.227 214.897 256.227C214.393 256.227 213.853 256.515 213.853 257.367V261.147H212.293V254.895H213.817V255.471C214.225 255.039 214.801 254.823 215.377 254.823ZM224.551 252.603V261.147H223.027V260.559C222.595 261.039 222.139 261.219 221.479 261.219C220.855 261.219 220.303 261.015 219.955 260.655C219.355 260.043 219.307 259.071 219.307 258.015C219.307 256.971 219.355 255.999 219.955 255.387C220.303 255.027 220.843 254.823 221.467 254.823C222.103 254.823 222.583 254.991 222.991 255.447V252.603H224.551ZM221.923 256.227C220.987 256.227 220.867 257.007 220.867 258.015C220.867 259.035 220.987 259.815 221.923 259.815C222.859 259.815 222.991 259.035 222.991 258.015C222.991 257.007 222.859 256.227 221.923 256.227ZM231.726 258.015C231.726 259.143 231.594 259.863 231.018 260.451C230.622 260.859 229.998 261.219 229.074 261.219C228.15 261.219 227.538 260.859 227.142 260.451C226.578 259.851 226.434 259.143 226.434 258.015C226.434 256.887 226.578 256.191 227.142 255.591C227.538 255.183 228.15 254.823 229.074 254.823C229.998 254.823 230.622 255.171 231.018 255.591C231.582 256.191 231.726 256.887 231.726 258.015ZM230.166 258.015C230.166 257.379 230.13 256.815 229.806 256.503C229.626 256.323 229.386 256.227 229.074 256.227C228.774 256.227 228.534 256.323 228.354 256.503C228.03 256.815 227.994 257.379 227.994 258.015C227.994 258.663 228.03 259.227 228.354 259.539C228.534 259.719 228.774 259.815 229.074 259.815C229.386 259.815 229.626 259.719 229.806 259.539C230.13 259.227 230.166 258.663 230.166 258.015ZM240.226 254.823C240.85 254.823 241.414 255.027 241.774 255.375C242.278 255.879 242.446 256.467 242.446 257.151V261.147H240.886V257.367C240.886 256.515 240.358 256.227 239.854 256.227C239.374 256.227 238.81 256.515 238.81 257.331V261.147H237.25V257.367C237.25 256.515 236.722 256.227 236.218 256.227C235.714 256.227 235.174 256.515 235.174 257.367V261.147H233.614V254.895H235.138V255.471C235.546 255.039 236.134 254.823 236.71 254.823C237.406 254.823 237.97 255.075 238.366 255.615C238.894 255.063 239.446 254.823 240.226 254.823ZM246.085 255.075V261.147H244.525V255.075H246.085ZM246.097 252.555V253.827H244.501V252.555H246.097ZM250.354 254.823C251.338 254.823 252.142 255.003 252.742 255.555L251.782 256.527C251.422 256.203 250.882 256.107 250.33 256.107C249.706 256.107 249.442 256.395 249.442 256.707C249.442 257.031 249.622 257.199 250.09 257.247L251.074 257.343C252.31 257.463 252.934 258.111 252.934 259.179C252.934 260.559 251.758 261.219 250.282 261.219C249.298 261.219 248.422 261.111 247.618 260.319L248.638 259.299C249.142 259.815 249.826 259.887 250.306 259.887C250.846 259.887 251.41 259.707 251.41 259.239C251.41 258.927 251.254 258.711 250.75 258.663L249.766 258.567C248.638 258.459 247.942 257.967 247.942 256.815C247.942 255.507 249.082 254.823 250.354 254.823ZM256.706 254.823C258.47 254.823 259.37 255.567 259.37 257.031V261.147H257.846V260.607C257.426 261.027 257.03 261.207 256.31 261.207C255.602 261.207 255.074 261.015 254.714 260.655C254.378 260.307 254.198 259.803 254.198 259.251C254.198 258.255 254.882 257.439 256.358 257.439H257.81V257.127C257.81 256.443 257.474 256.143 256.646 256.143C256.082 256.143 255.782 256.299 255.446 256.683L254.462 255.711C255.074 255.039 255.662 254.823 256.706 254.823ZM257.81 258.507H256.622C255.998 258.507 255.698 258.759 255.698 259.227C255.698 259.659 255.998 259.935 256.646 259.935C257.03 259.935 257.306 259.887 257.57 259.635C257.75 259.479 257.81 259.239 257.81 258.843V258.507ZM263.156 253.227V255.075H264.26V256.263H263.156V259.263C263.156 259.623 263.324 259.827 263.696 259.827H264.26V261.147H263.408C262.136 261.147 261.596 260.247 261.596 259.359V256.263H260.936V255.075H261.596V253.227H263.156ZM267.631 255.075V261.147H266.071V255.075H267.631ZM267.643 252.555V253.827H266.047V252.555H267.643ZM274.803 258.015C274.803 259.143 274.671 259.863 274.095 260.451C273.699 260.859 273.075 261.219 272.151 261.219C271.227 261.219 270.615 260.859 270.219 260.451C269.655 259.851 269.511 259.143 269.511 258.015C269.511 256.887 269.655 256.191 270.219 255.591C270.615 255.183 271.227 254.823 272.151 254.823C273.075 254.823 273.699 255.171 274.095 255.591C274.659 256.191 274.803 256.887 274.803 258.015ZM273.243 258.015C273.243 257.379 273.207 256.815 272.883 256.503C272.703 256.323 272.463 256.227 272.151 256.227C271.851 256.227 271.611 256.323 271.431 256.503C271.107 256.815 271.071 257.379 271.071 258.015C271.071 258.663 271.107 259.227 271.431 259.539C271.611 259.719 271.851 259.815 272.151 259.815C272.463 259.815 272.703 259.719 272.883 259.539C273.207 259.227 273.243 258.663 273.243 258.015ZM279.775 254.823C280.399 254.823 280.903 255.015 281.251 255.375C281.755 255.891 281.887 256.467 281.887 257.151V261.147H280.327V257.367C280.327 256.515 279.799 256.227 279.295 256.227C278.791 256.227 278.251 256.515 278.251 257.367V261.147H276.691V254.895H278.215V255.471C278.623 255.039 279.199 254.823 279.775 254.823Z" fill="#575756"/>
<path d="M3.93087 203.701C3.93087 202.105 4.84287 200.869 6.63087 200.569L6.63087 202.261C5.93487 202.429 5.41887 202.873 5.41887 203.701C5.41887 204.157 5.58687 204.529 5.86287 204.769C6.22287 205.081 6.64287 205.189 8.27487 205.189C9.90687 205.189 10.3269 205.081 10.6869 204.769C10.9629 204.529 11.1309 204.157 11.1309 203.701C11.1309 202.873 10.6149 202.429 9.91887 202.261L9.91887 200.569C11.7069 200.869 12.6189 202.105 12.6189 203.701C12.6189 204.685 12.2949 205.405 11.7189 205.993C10.8669 206.845 9.90687 206.857 8.27487 206.857C6.64287 206.857 5.68287 206.845 4.83087 205.993C4.25487 205.405 3.93087 204.685 3.93087 203.701ZM6.29487 193.724L12.5469 193.724L12.5469 195.248L11.9709 195.248C12.4029 195.656 12.6189 196.232 12.6189 196.808C12.6189 197.42 12.4269 197.924 12.0669 198.284C11.5629 198.788 10.9749 198.92 10.2909 198.92L6.29487 198.92L6.29487 197.36L10.0749 197.36C10.9269 197.36 11.2149 196.82 11.2149 196.328C11.2149 195.824 10.9269 195.284 10.0749 195.284L6.29487 195.284L6.29487 193.724ZM6.22287 184.957C6.22287 184.333 6.42687 183.769 6.77487 183.409C7.27887 182.905 7.86687 182.737 8.55087 182.737L12.5469 182.737L12.5469 184.297L8.76687 184.297C7.91487 184.297 7.62687 184.825 7.62687 185.329C7.62687 185.809 7.91487 186.373 8.73087 186.373L12.5469 186.373L12.5469 187.933L8.76687 187.933C7.91487 187.933 7.62687 188.461 7.62687 188.965C7.62687 189.469 7.91487 190.009 8.76687 190.009L12.5469 190.009L12.5469 191.569L6.29487 191.569L6.29487 190.045L6.87087 190.045C6.43887 189.637 6.22287 189.049 6.22287 188.473C6.22287 187.777 6.47487 187.213 7.01487 186.817C6.46287 186.289 6.22287 185.737 6.22287 184.957ZM6.29487 175.533L12.5469 175.533L12.5469 177.057L11.9709 177.057C12.4029 177.465 12.6189 178.041 12.6189 178.617C12.6189 179.229 12.4269 179.733 12.0669 180.093C11.5629 180.597 10.9749 180.729 10.2909 180.729L6.29487 180.729L6.29487 179.169L10.0749 179.169C10.9269 179.169 11.2149 178.629 11.2149 178.137C11.2149 177.633 10.9269 177.093 10.0749 177.093L6.29487 177.093L6.29487 175.533ZM4.00287 171.878L10.6629 171.878C11.0349 171.878 11.2269 171.722 11.2269 171.326L11.2269 170.726L12.5469 170.726L12.5469 171.614C12.5469 172.898 11.6589 173.438 10.7589 173.438L4.00287 173.438L4.00287 171.878ZM6.22287 167.012C6.22287 165.248 6.96687 164.348 8.43087 164.348L12.5469 164.348L12.5469 165.872L12.0069 165.872C12.4269 166.292 12.6069 166.688 12.6069 167.408C12.6069 168.116 12.4149 168.644 12.0549 169.004C11.7069 169.34 11.2029 169.52 10.6509 169.52C9.65487 169.52 8.83887 168.836 8.83887 167.36L8.83887 165.908L8.52687 165.908C7.84287 165.908 7.54287 166.244 7.54287 167.072C7.54287 167.636 7.69887 167.936 8.08287 168.272L7.11087 169.256C6.43887 168.644 6.22287 168.056 6.22287 167.012ZM9.90687 165.908L9.90687 167.096C9.90687 167.72 10.1589 168.02 10.6269 168.02C11.0589 168.02 11.3349 167.72 11.3349 167.072C11.3349 166.688 11.2869 166.412 11.0349 166.148C10.8789 165.968 10.6389 165.908 10.2429 165.908L9.90687 165.908ZM4.62687 160.562L6.47487 160.562L6.47487 159.458L7.66287 159.458L7.66287 160.562L10.6629 160.562C11.0229 160.562 11.2269 160.394 11.2269 160.022L11.2269 159.458L12.5469 159.458L12.5469 160.31C12.5469 161.582 11.6469 162.122 10.7589 162.122L7.66287 162.122L7.66287 162.782L6.47487 162.782L6.47487 162.122L4.62687 162.122L4.62687 160.562ZM6.47487 156.087L12.5469 156.087L12.5469 157.647L6.47487 157.647L6.47487 156.087ZM3.95487 156.075L5.22687 156.075L5.22687 157.671L3.95487 157.671L3.95487 156.075ZM6.29487 148.95L12.5469 151.242L12.5469 152.466L6.29487 154.77L6.29487 153.126L10.1589 151.854L6.29487 150.594L6.29487 148.95ZM6.22287 145.33C6.22287 143.59 7.47087 142.606 9.24687 142.606L9.90687 142.606L9.90687 146.518C10.7229 146.518 11.2989 146.038 11.2989 145.15C11.2989 144.466 11.0949 144.13 10.7109 143.746L11.6349 142.786C12.2829 143.422 12.6189 144.034 12.6189 145.162C12.6189 146.65 11.9469 148.054 9.41487 148.054C7.37487 148.054 6.22287 146.95 6.22287 145.33ZM7.51887 145.33C7.51887 145.87 7.79487 146.218 8.16687 146.386C8.39487 146.494 8.56287 146.506 8.83887 146.518L8.83887 144.154C8.56287 144.166 8.39487 144.178 8.16687 144.286C7.79487 144.454 7.51887 144.802 7.51887 145.33ZM4.00287 131.83L5.49087 131.83L5.49087 135.79L7.49487 135.79L7.49487 132.406L8.98287 132.406L8.98287 135.79L11.0589 135.79L11.0589 131.83L12.5469 131.83L12.5469 137.458L4.00287 137.458L4.00287 131.83ZM6.29487 124.921L12.5469 127.213L12.5469 128.437L6.29487 130.741L6.29487 129.097L10.1589 127.825L6.29487 126.565L6.29487 124.921ZM6.22287 121.3C6.22287 119.56 7.47087 118.576 9.24687 118.576L9.90687 118.576L9.90687 122.488C10.7229 122.488 11.2989 122.008 11.2989 121.12C11.2989 120.436 11.0949 120.1 10.7109 119.716L11.6349 118.756C12.2829 119.392 12.6189 120.004 12.6189 121.132C12.6189 122.62 11.9469 124.024 9.41487 124.024C7.37487 124.024 6.22287 122.92 6.22287 121.3ZM7.51887 121.3C7.51887 121.84 7.79487 122.188 8.16687 122.356C8.39487 122.464 8.56287 122.476 8.83887 122.488L8.83887 120.124C8.56287 120.136 8.39487 120.148 8.16687 120.256C7.79487 120.424 7.51887 120.772 7.51887 121.3ZM6.22287 113.654C6.22287 113.03 6.41487 112.526 6.77487 112.178C7.29087 111.674 7.86687 111.542 8.55087 111.542L12.5469 111.542L12.5469 113.102L8.76687 113.102C7.91487 113.102 7.62687 113.63 7.62687 114.134C7.62687 114.638 7.91487 115.178 8.76687 115.178L12.5469 115.178L12.5469 116.738L6.29487 116.738L6.29487 115.214L6.87087 115.214C6.43887 114.806 6.22287 114.23 6.22287 113.654ZM4.62687 107.755L6.47487 107.755L6.47487 106.651L7.66287 106.651L7.66287 107.755L10.6629 107.755C11.0229 107.755 11.2269 107.587 11.2269 107.215L11.2269 106.651L12.5469 106.651L12.5469 107.503C12.5469 108.775 11.6469 109.315 10.7589 109.315L7.66287 109.315L7.66287 109.975L6.47487 109.975L6.47487 109.315L4.62687 109.315L4.62687 107.755ZM6.22287 102.716C6.22287 101.732 6.40287 100.928 6.95487 100.328L7.92687 101.288C7.60287 101.648 7.50687 102.188 7.50687 102.74C7.50687 103.364 7.79487 103.628 8.10687 103.628C8.43087 103.628 8.59887 103.448 8.64687 102.98L8.74287 101.996C8.86287 100.76 9.51087 100.136 10.5789 100.136C11.9589 100.136 12.6189 101.312 12.6189 102.788C12.6189 103.772 12.5109 104.648 11.7189 105.452L10.6989 104.432C11.2149 103.928 11.2869 103.244 11.2869 102.764C11.2869 102.224 11.1069 101.66 10.6389 101.66C10.3269 101.66 10.1109 101.816 10.0629 102.32L9.96687 103.304C9.85887 104.432 9.36687 105.128 8.21487 105.128C6.90687 105.128 6.22287 103.988 6.22287 102.716ZM4.00287 95.1193L4.00287 91.8073C4.00287 90.0313 5.21487 88.9873 6.66687 88.9873C8.11887 88.9873 9.33087 90.0313 9.33087 91.8073L9.33087 93.4513L12.5469 93.4513L12.5469 95.1193L4.00287 95.1193ZM5.49087 91.8913L5.49087 93.4513L7.84287 93.4513L7.84287 91.8913C7.84287 91.1353 7.36287 90.6553 6.66687 90.6553C5.95887 90.6553 5.49087 91.1353 5.49087 91.8913ZM6.22287 85.0093C6.22287 83.2693 7.47087 82.2853 9.24687 82.2853L9.90687 82.2853L9.90687 86.1973C10.7229 86.1973 11.2989 85.7173 11.2989 84.8293C11.2989 84.1453 11.0949 83.8093 10.7109 83.4253L11.6349 82.4653C12.2829 83.1013 12.6189 83.7133 12.6189 84.8413C12.6189 86.3293 11.9469 87.7333 9.41487 87.7333C7.37487 87.7333 6.22287 86.6293 6.22287 85.0093ZM7.51887 85.0093C7.51887 85.5493 7.79487 85.8973 8.16687 86.0653C8.39487 86.1733 8.56287 86.1853 8.83887 86.1973L8.83887 83.8333C8.56287 83.8453 8.39487 83.8573 8.16687 83.9653C7.79487 84.1333 7.51887 84.4813 7.51887 85.0093ZM6.22287 77.3511C6.22287 76.7271 6.36687 76.3071 6.81087 75.8751L7.99887 77.0391C7.75887 77.2791 7.62687 77.4831 7.62687 77.8671C7.62687 78.3471 7.98687 78.8871 8.77887 78.8871L12.5469 78.8871L12.5469 80.4471L6.29487 80.4471L6.29487 78.9231L6.89487 78.9231C6.53487 78.6231 6.22287 78.0231 6.22287 77.3511ZM4.00287 71.2771L4.00287 67.9651C4.00287 66.1891 5.21487 65.1451 6.66687 65.1451C8.11887 65.1451 9.33087 66.1891 9.33087 67.9651L9.33087 69.6091L12.5469 69.6091L12.5469 71.2771L4.00287 71.2771ZM5.49087 68.0491L5.49087 69.6091L7.84287 69.6091L7.84287 68.0491C7.84287 67.2931 7.36287 66.8131 6.66687 66.8131C5.95887 66.8131 5.49087 67.2931 5.49087 68.0491ZM6.22287 61.5151C6.22287 59.7511 6.96687 58.8511 8.43087 58.8511L12.5469 58.8511L12.5469 60.3751L12.0069 60.3751C12.4269 60.7951 12.6069 61.1911 12.6069 61.9111C12.6069 62.6191 12.4149 63.1471 12.0549 63.5071C11.7069 63.8431 11.2029 64.0231 10.6509 64.0231C9.65487 64.0231 8.83887 63.3391 8.83887 61.8631L8.83887 60.4111L8.52687 60.4111C7.84287 60.4111 7.54287 60.7471 7.54287 61.5751C7.54287 62.1391 7.69887 62.4391 8.08287 62.7751L7.11087 63.7591C6.43887 63.1471 6.22287 62.5591 6.22287 61.5151ZM9.90687 60.4111L9.90687 61.5991C9.90687 62.2231 10.1589 62.5231 10.6269 62.5231C11.0589 62.5231 11.3349 62.2231 11.3349 61.5751C11.3349 61.1911 11.2869 60.9151 11.0349 60.6511C10.8789 60.4711 10.6389 60.4111 10.2429 60.4111L9.90687 60.4111ZM4.62687 55.065L6.47487 55.065L6.47487 53.961L7.66287 53.961L7.66287 55.065L10.6629 55.065C11.0229 55.065 11.2269 54.897 11.2269 54.525L11.2269 53.961L12.5469 53.961L12.5469 54.813C12.5469 56.085 11.6469 56.625 10.7589 56.625L7.66287 56.625L7.66287 57.285L6.47487 57.285L6.47487 56.625L4.62687 56.625L4.62687 55.065ZM6.47487 50.5902L12.5469 50.5902L12.5469 52.1502L6.47487 52.1502L6.47487 50.5902ZM3.95487 50.5782L5.22687 50.5782L5.22687 52.1742L3.95487 52.1742L3.95487 50.5782ZM6.22287 46.0335C6.22287 44.2935 7.47087 43.3095 9.24687 43.3095L9.90687 43.3095L9.90687 47.2215C10.7229 47.2215 11.2989 46.7415 11.2989 45.8535C11.2989 45.1695 11.0949 44.8335 10.7109 44.4495L11.6349 43.4895C12.2829 44.1255 12.6189 44.7375 12.6189 45.8655C12.6189 47.3535 11.9469 48.7575 9.41487 48.7575C7.37487 48.7575 6.22287 47.6535 6.22287 46.0335ZM7.51887 46.0335C7.51887 46.5735 7.79487 46.9215 8.16687 47.0895C8.39487 47.1975 8.56287 47.2095 8.83887 47.2215L8.83887 44.8575C8.56287 44.8695 8.39487 44.8815 8.16687 44.9895C7.79487 45.1575 7.51887 45.5055 7.51887 46.0335ZM6.22287 38.3873C6.22287 37.7633 6.41487 37.2593 6.77487 36.9113C7.29087 36.4073 7.86687 36.2753 8.55087 36.2753L12.5469 36.2753L12.5469 37.8353L8.76687 37.8353C7.91487 37.8353 7.62687 38.3633 7.62687 38.8673C7.62687 39.3713 7.91487 39.9113 8.76687 39.9113L12.5469 39.9113L12.5469 41.4713L6.29487 41.4713L6.29487 39.9473L6.87087 39.9473C6.43887 39.5393 6.22287 38.9633 6.22287 38.3873ZM4.62687 32.4884L6.47487 32.4884L6.47487 31.3844L7.66287 31.3844L7.66287 32.4884L10.6629 32.4884C11.0229 32.4884 11.2269 32.3204 11.2269 31.9484L11.2269 31.3844L12.5469 31.3844L12.5469 32.2364C12.5469 33.5084 11.6469 34.0484 10.7589 34.0484L7.66287 34.0484L7.66287 34.7084L6.47487 34.7084L6.47487 34.0484L4.62687 34.0484L4.62687 32.4884Z" fill="#575756"/>
<path d="M58.6815 232.395C57.3615 232.395 56.4375 231.447 56.4375 230.115V225.987C56.4375 224.655 57.3615 223.707 58.6815 223.707C60.0015 223.707 60.9255 224.655 60.9255 225.987V230.115C60.9255 231.447 60.0015 232.395 58.6815 232.395ZM58.6815 231.855C59.7495 231.855 60.3135 231.063 60.3135 230.055V226.047C60.3135 225.039 59.7495 224.247 58.6815 224.247C57.6135 224.247 57.0495 225.039 57.0495 226.047V230.055C57.0495 231.063 57.6135 231.855 58.6815 231.855Z" fill="#575756"/>
<path d="M46.5068 217.936C45.1868 217.936 44.2628 216.988 44.2628 215.656V211.528C44.2628 210.196 45.1868 209.248 46.5068 209.248C47.8268 209.248 48.7508 210.196 48.7508 211.528V215.656C48.7508 216.988 47.8268 217.936 46.5068 217.936ZM46.5068 217.396C47.5748 217.396 48.1388 216.604 48.1388 215.596V211.588C48.1388 210.58 47.5748 209.788 46.5068 209.788C45.4388 209.788 44.8748 210.58 44.8748 211.588V215.596C44.8748 216.604 45.4388 217.396 46.5068 217.396Z" fill="#575756"/>
<path d="M36.1061 53.9001C34.7861 53.9001 33.8621 52.9521 33.8621 51.6201V47.4921C33.8621 46.1601 34.7861 45.2121 36.1061 45.2121C37.4261 45.2121 38.3501 46.1601 38.3501 47.4921V51.6201C38.3501 52.9521 37.4261 53.9001 36.1061 53.9001ZM36.1061 53.3601C37.1741 53.3601 37.7381 52.5681 37.7381 51.5601V47.5521C37.7381 46.5441 37.1741 45.7521 36.1061 45.7521C35.0381 45.7521 34.4741 46.5441 34.4741 47.5521V51.5601C34.4741 52.5681 35.0381 53.3601 36.1061 53.3601ZM41.6142 52.9401V53.8281H40.7262V52.9401H41.6142ZM45.0222 53.8281L48.0462 45.8241H44.7942V47.1681H44.1822V45.2841H48.6582V45.8241L45.6342 53.8281H45.0222Z" fill="#575756"/>
<path d="M36.1061 30.8943C34.7861 30.8943 33.8621 29.9463 33.8621 28.6143V24.4863C33.8621 23.1543 34.7861 22.2063 36.1061 22.2063C37.4261 22.2063 38.3501 23.1543 38.3501 24.4863V28.6143C38.3501 29.9463 37.4261 30.8943 36.1061 30.8943ZM36.1061 30.3543C37.1741 30.3543 37.7381 29.5623 37.7381 28.5543V24.5463C37.7381 23.5383 37.1741 22.7463 36.1061 22.7463C35.0381 22.7463 34.4741 23.5383 34.4741 24.5463V28.5543C34.4741 29.5623 35.0381 30.3543 36.1061 30.3543ZM41.6142 29.9343V30.8223H40.7262V29.9343H41.6142ZM46.2342 30.8943C44.8542 30.8943 43.7982 29.8863 43.7982 28.5183C43.7982 27.5223 44.3382 26.8143 45.1542 26.3823C44.3862 25.9623 43.9782 25.3143 43.9782 24.4383C43.9782 23.1903 44.9022 22.2063 46.2342 22.2063C47.5662 22.2063 48.4902 23.1903 48.4902 24.4383C48.4902 25.3143 48.1062 25.9623 47.3262 26.3823C48.1422 26.8143 48.6702 27.5223 48.6702 28.5183C48.6702 29.8863 47.6142 30.8943 46.2342 30.8943ZM46.2342 30.3543C47.2662 30.3543 48.0582 29.5743 48.0582 28.5183C48.0582 27.4743 47.2662 26.6703 46.2342 26.6703C45.2022 26.6703 44.4102 27.4743 44.4102 28.5183C44.4102 29.5743 45.2022 30.3543 46.2342 30.3543ZM46.2342 26.1303C47.2062 26.1303 47.8782 25.4343 47.8782 24.4383C47.8782 23.4423 47.2062 22.7463 46.2342 22.7463C45.2622 22.7463 44.5902 23.4423 44.5902 24.4383C44.5902 25.4343 45.2622 26.1303 46.2342 26.1303Z" fill="#575756"/>
<path d="M110.409 232.323V224.475L108.861 225.843V225.111L110.409 223.779H111.021V232.323H110.409Z" fill="#575756"/>
<path d="M36.1061 77.0388C34.7861 77.0388 33.8621 76.0908 33.8621 74.7588V70.6308C33.8621 69.2988 34.7861 68.3508 36.1061 68.3508C37.4261 68.3508 38.3501 69.2988 38.3501 70.6308V74.7588C38.3501 76.0908 37.4261 77.0388 36.1061 77.0388ZM36.1061 76.4988C37.1741 76.4988 37.7381 75.7068 37.7381 74.6988V70.6908C37.7381 69.6828 37.1741 68.8908 36.1061 68.8908C35.0381 68.8908 34.4741 69.6828 34.4741 70.6908V74.6988C34.4741 75.7068 35.0381 76.4988 36.1061 76.4988ZM41.6142 76.0788V76.9668H40.7262V76.0788H41.6142ZM46.2702 77.0388C44.8302 77.0388 44.0022 76.0308 44.0022 74.6388C44.0022 74.0748 44.1222 73.5708 44.4822 72.8508L46.6782 68.4228H47.2902L45.2742 72.4548C45.5622 72.2628 45.9222 72.1668 46.3182 72.1668C47.7102 72.1668 48.5262 73.2228 48.5262 74.5548C48.5262 75.9228 47.7102 77.0388 46.2702 77.0388ZM46.2582 76.4988C47.2662 76.4988 47.9142 75.7548 47.9142 74.6028C47.9142 73.5828 47.3502 72.7068 46.2582 72.7068C45.2502 72.7068 44.6142 73.4508 44.6142 74.6028C44.6142 75.7548 45.2502 76.4988 46.2582 76.4988Z" fill="#575756"/>
<path d="M36.1061 123.961C34.7861 123.961 33.8621 123.013 33.8621 121.681V117.553C33.8621 116.221 34.7861 115.273 36.1061 115.273C37.4261 115.273 38.3501 116.221 38.3501 117.553V121.681C38.3501 123.013 37.4261 123.961 36.1061 123.961ZM36.1061 123.421C37.1741 123.421 37.7381 122.629 37.7381 121.621V117.613C37.7381 116.605 37.1741 115.813 36.1061 115.813C35.0381 115.813 34.4741 116.605 34.4741 117.613V121.621C34.4741 122.629 35.0381 123.421 36.1061 123.421ZM41.6142 123.001V123.889H40.7262V123.001H41.6142ZM47.0502 123.889V122.485H43.6662V121.945L46.8102 115.345H47.4582L44.3142 121.945H47.0502V119.233H47.6622V121.945H48.8022V122.485H47.6622V123.889H47.0502Z" fill="#575756"/>
<path d="M36.1061 99.9089C34.7861 99.9089 33.8621 98.9609 33.8621 97.6289V93.5009C33.8621 92.1689 34.7861 91.2209 36.1061 91.2209C37.4261 91.2209 38.3501 92.1689 38.3501 93.5009V97.6289C38.3501 98.9609 37.4261 99.9089 36.1061 99.9089ZM36.1061 99.3689C37.1741 99.3689 37.7381 98.5769 37.7381 97.5689V93.5609C37.7381 92.5529 37.1741 91.7609 36.1061 91.7609C35.0381 91.7609 34.4741 92.5529 34.4741 93.5609V97.5689C34.4741 98.5769 35.0381 99.3689 36.1061 99.3689ZM41.6142 98.9489V99.8369H40.7262V98.9489H41.6142ZM46.2582 99.9089C45.5502 99.9089 44.9862 99.7169 44.6142 99.3329C44.2782 98.9969 44.0862 98.5289 44.0382 97.9409H44.6502C44.7822 98.8529 45.2502 99.3689 46.2582 99.3689C46.7262 99.3689 47.1582 99.2129 47.4342 98.9369C47.9382 98.4329 47.9502 97.6769 47.9502 97.0289C47.9502 95.9609 47.7462 94.7489 46.3542 94.7489C45.5742 94.7489 44.9862 95.0729 44.8062 95.6489H44.2662V91.2929H48.3702V91.8329H44.8062V94.8449C45.1782 94.4249 45.7182 94.2089 46.4262 94.2089C47.0382 94.2089 47.5182 94.3769 47.8662 94.7249C48.4782 95.3369 48.5622 96.2249 48.5622 97.0289C48.5622 97.8449 48.5142 98.6849 47.9022 99.2969C47.4942 99.7049 46.9422 99.9089 46.2582 99.9089Z" fill="#575756"/>
<path d="M36.1061 194.02C34.7861 194.02 33.8621 193.072 33.8621 191.74V187.612C33.8621 186.28 34.7861 185.332 36.1061 185.332C37.4261 185.332 38.3501 186.28 38.3501 187.612V191.74C38.3501 193.072 37.4261 194.02 36.1061 194.02ZM36.1061 193.48C37.1741 193.48 37.7381 192.688 37.7381 191.68V187.672C37.7381 186.664 37.1741 185.872 36.1061 185.872C35.0381 185.872 34.4741 186.664 34.4741 187.672V191.68C34.4741 192.688 35.0381 193.48 36.1061 193.48ZM41.6142 193.06V193.948H40.7262V193.06H41.6142ZM46.2942 193.948V186.1L44.7462 187.468V186.736L46.2942 185.404H46.9062V193.948H46.2942Z" fill="#575756"/>
<path d="M36.1061 171.015C34.7861 171.015 33.8621 170.067 33.8621 168.735V164.607C33.8621 163.275 34.7861 162.327 36.1061 162.327C37.4261 162.327 38.3501 163.275 38.3501 164.607V168.735C38.3501 170.067 37.4261 171.015 36.1061 171.015ZM36.1061 170.475C37.1741 170.475 37.7381 169.683 37.7381 168.675V164.667C37.7381 163.659 37.1741 162.867 36.1061 162.867C35.0381 162.867 34.4741 163.659 34.4741 164.667V168.675C34.4741 169.683 35.0381 170.475 36.1061 170.475ZM41.6142 170.055V170.943H40.7262V170.055H41.6142ZM44.0142 170.943V170.403L47.4462 165.903C47.7822 165.471 47.9262 165.063 47.9262 164.571C47.9262 163.551 47.3262 162.867 46.2822 162.867C45.3942 162.867 44.6382 163.371 44.6382 164.571H44.0262C44.0262 163.299 44.8782 162.327 46.2822 162.327C47.6502 162.327 48.5382 163.227 48.5382 164.571C48.5382 165.207 48.3822 165.651 47.9502 166.215L44.7462 170.403H48.5382V170.943H44.0142Z" fill="#575756"/>
<path d="M36.1061 148.01C34.7861 148.01 33.8621 147.062 33.8621 145.73V141.602C33.8621 140.27 34.7861 139.322 36.1061 139.322C37.4261 139.322 38.3501 140.27 38.3501 141.602V145.73C38.3501 147.062 37.4261 148.01 36.1061 148.01ZM36.1061 147.47C37.1741 147.47 37.7381 146.678 37.7381 145.67V141.662C37.7381 140.654 37.1741 139.862 36.1061 139.862C35.0381 139.862 34.4741 140.654 34.4741 141.662V145.67C34.4741 146.678 35.0381 147.47 36.1061 147.47ZM41.6142 147.05V147.938H40.7262V147.05H41.6142ZM46.0902 148.01C44.7582 148.01 43.7502 147.326 43.6542 145.85H44.2662C44.3622 147.014 45.1902 147.47 46.0902 147.47C47.1102 147.47 47.9022 146.786 47.9022 145.646C47.9022 144.494 47.3502 143.834 46.0422 143.834H45.8982V143.294H46.0422C47.1942 143.294 47.7342 142.694 47.7342 141.59C47.7342 140.474 47.0022 139.862 46.0782 139.862C45.0702 139.862 44.4822 140.462 44.3742 141.422H43.7622C43.8942 140.078 44.8302 139.322 46.0782 139.322C47.4222 139.322 48.3462 140.21 48.3462 141.59C48.3462 142.502 47.9982 143.15 47.1342 143.522C48.0942 143.846 48.5142 144.554 48.5142 145.646C48.5142 147.17 47.4702 148.01 46.0902 148.01Z" fill="#575756"/>
<path d="M162.224 232.323V231.783L165.656 227.283C165.992 226.851 166.136 226.443 166.136 225.951C166.136 224.931 165.536 224.247 164.492 224.247C163.604 224.247 162.848 224.751 162.848 225.951H162.236C162.236 224.679 163.088 223.707 164.492 223.707C165.86 223.707 166.748 224.607 166.748 225.951C166.748 226.587 166.592 227.031 166.16 227.595L162.956 231.783H166.748V232.323H162.224Z" fill="#575756"/>
<path d="M216.865 232.395C215.533 232.395 214.525 231.711 214.429 230.235H215.041C215.137 231.399 215.965 231.855 216.865 231.855C217.885 231.855 218.677 231.171 218.677 230.031C218.677 228.879 218.125 228.219 216.817 228.219H216.673V227.679H216.817C217.969 227.679 218.509 227.079 218.509 225.975C218.509 224.859 217.777 224.247 216.853 224.247C215.845 224.247 215.257 224.847 215.149 225.807H214.537C214.669 224.463 215.605 223.707 216.853 223.707C218.197 223.707 219.121 224.595 219.121 225.975C219.121 226.887 218.773 227.535 217.909 227.907C218.869 228.231 219.289 228.939 219.289 230.031C219.289 231.555 218.245 232.395 216.865 232.395Z" fill="#575756"/>
<path d="M270.243 232.323V230.919H266.859V230.379L270.003 223.779H270.651L267.507 230.379H270.243V227.667H270.855V230.379H271.995V230.919H270.855V232.323H270.243Z" fill="#575756"/>
<path d="M321.734 231.962C321.026 231.962 320.462 231.77 320.09 231.386C319.754 231.05 319.562 230.582 319.514 229.994H320.126C320.258 230.906 320.726 231.422 321.734 231.422C322.202 231.422 322.634 231.266 322.91 230.99C323.414 230.486 323.426 229.73 323.426 229.082C323.426 228.014 323.222 226.802 321.83 226.802C321.05 226.802 320.462 227.126 320.282 227.702H319.742V223.346H323.846V223.886H320.282V226.898C320.654 226.478 321.194 226.262 321.902 226.262C322.514 226.262 322.994 226.43 323.342 226.778C323.954 227.39 324.038 228.278 324.038 229.082C324.038 229.898 323.99 230.738 323.378 231.35C322.97 231.758 322.418 231.962 321.734 231.962Z" fill="#575756"/>
<path d="M57.0137 213.315H61.4315V211.658H63.0882H64.1926V211.106H66.4015V210.553H68.6105V209.449H70.8194V208.344H72.4761H73.5805V207.792H76.8939V206.688H79.1028V205.583H80.7595H81.3117V204.479H83.5206V203.927H85.7295V203.374H86.834V202.27H89.0429V201.166H90.6996H92.3563V200.613H95.6696V199.509H97.8785H98.4308V198.957H100.64V198.404H105.058V197.852H106.162V197.3H106.714V196.748H107.819V196.195H108.923V195.643H109.475V195.091H111.132V193.987H112.789V193.434H115.55V192.882H118.311V192.33H123.281C124.201 192.33 126.042 192.33 126.042 192.33V191.225H126.594V190.673H128.803C129.171 190.673 129.908 190.673 129.908 190.673V190.121H130.46V189.016H132.117H134.878V187.912C136.166 187.912 138.743 187.912 138.743 187.912H141.505V187.36H143.713V186.808C144.45 186.808 145.922 186.808 145.922 186.808V186.255H147.579H148.684V185.703H150.34V185.151H153.101V184.599H154.758V184.046H155.862V182.942H156.967H157.519V181.838H158.624H159.176V180.733H163.594V180.181H165.803V179.629H166.907V178.524H168.564V177.42H170.22V176.867H172.982V176.315H174.086V175.763H177.952V174.659H181.817V173.554H184.578V173.002H189.548V172.45H192.31V171.345H193.966H196.175V170.793H197.832V170.241H198.936V169.689H200.593V167.48H202.802V166.927H204.459V166.375H207.22H208.324V165.823H209.429V165.271H211.638V164.718H212.742V164.166H213.846V163.614H216.055H216.608V162.51H221.025V161.957H224.339H225.443V161.405H228.757V160.853H230.965V160.301H232.07V159.748H235.383H241.458V159.196H242.562V158.644H243.667V157.539H249.189H250.846V156.987H253.055V155.883H256.368H259.129V154.778H262.995H264.099V154.226H267.413H267.965V153.122H269.069V152.569H270.726V152.017H275.696V150.913H279.009V149.808H281.77H282.875V148.704H283.979V148.152H286.188V147.047H287.845V146.495H288.949V145.943H290.054V144.838H294.472V143.734H297.233V142.629H301.651H304.964V142.077H306.621V140.973H308.83V139.868H313.8V139.316H316.561V138.764H320.979V138.212H323.74V137.659H327.605V136.003H333.128V135.45H334.784V134.898H340.307V134.346H348.038V133.794H348.59V132.689H353.56V132.137H356.321V131.033H362.948V129.376H364.605V127.719H365.709V126.062H375.097" stroke="#898989" stroke-width="2"/>
<path d="M328.668 166.215L325.848 174.759H324.588L321.768 166.215H323.496L325.224 171.771L326.928 166.215H328.668ZM333.123 166.215L336.243 174.759H334.491L333.987 173.247H330.963L330.447 174.759H328.695L331.815 166.215H333.123ZM332.475 168.747L331.419 171.843H333.519L332.475 168.747ZM342.784 166.215V167.535L339.136 173.271H342.784V174.759H337.168V173.439L340.804 167.703H337.324V166.215H342.784ZM351.39 166.215L348.558 169.611L351.594 174.759H349.638L347.442 170.871L346.326 172.191V174.759H344.658V166.215H346.326V169.935L349.35 166.215H351.39ZM358.678 166.215V167.703H354.718V169.707H358.102V171.195H354.718V173.271H358.678V174.759H353.05V166.215H358.678ZM360.716 166.215H364.028C365.804 166.215 366.848 167.427 366.848 168.879C366.848 170.331 365.804 171.543 364.028 171.543H362.384V174.759H360.716V166.215ZM363.944 167.703H362.384V170.055H363.944C364.7 170.055 365.18 169.575 365.18 168.879C365.18 168.171 364.7 167.703 363.944 167.703ZM371.533 166.215L374.653 174.759H372.901L372.397 173.247H369.373L368.857 174.759H367.105L370.225 166.215H371.533ZM370.885 168.747L369.829 171.843H371.929L370.885 168.747Z" fill="#009ADE"/>
<path d="M316.209 110.035H319.521C321.297 110.035 322.341 111.247 322.341 112.699C322.341 114.151 321.297 115.363 319.521 115.363H317.877V118.579H316.209V110.035ZM319.437 111.523H317.877V113.875H319.437C320.193 113.875 320.673 113.395 320.673 112.699C320.673 111.991 320.193 111.523 319.437 111.523ZM325.524 110.035V116.695C325.524 117.067 325.68 117.259 326.076 117.259H326.676V118.579H325.788C324.504 118.579 323.964 117.691 323.964 116.791V110.035H325.524ZM330.39 112.255C332.154 112.255 333.054 112.999 333.054 114.463V118.579H331.53V118.039C331.11 118.459 330.714 118.639 329.994 118.639C329.286 118.639 328.758 118.447 328.398 118.087C328.062 117.739 327.882 117.235 327.882 116.683C327.882 115.687 328.566 114.871 330.042 114.871H331.494V114.559C331.494 113.875 331.158 113.575 330.33 113.575C329.766 113.575 329.466 113.731 329.13 114.115L328.146 113.143C328.758 112.471 329.346 112.255 330.39 112.255ZM331.494 115.939H330.306C329.682 115.939 329.382 116.191 329.382 116.659C329.382 117.091 329.682 117.367 330.33 117.367C330.714 117.367 330.99 117.319 331.254 117.067C331.434 116.911 331.494 116.671 331.494 116.275V115.939ZM337.668 112.255C338.532 112.255 339.168 112.519 339.732 113.095L338.664 114.151C338.34 113.803 338.076 113.659 337.668 113.659C337.284 113.659 337.008 113.803 336.78 114.067C336.54 114.367 336.432 114.787 336.432 115.447C336.432 116.119 336.54 116.539 336.78 116.839C337.008 117.103 337.284 117.247 337.668 117.247C338.076 117.247 338.34 117.091 338.664 116.755L339.732 117.799C339.168 118.375 338.532 118.651 337.668 118.651C336.408 118.651 334.872 117.979 334.872 115.447C334.872 112.927 336.408 112.255 337.668 112.255ZM343.585 112.255C345.325 112.255 346.309 113.503 346.309 115.279V115.939H342.397C342.397 116.755 342.877 117.331 343.765 117.331C344.449 117.331 344.785 117.127 345.169 116.743L346.129 117.667C345.493 118.315 344.881 118.651 343.753 118.651C342.265 118.651 340.861 117.979 340.861 115.447C340.861 113.407 341.965 112.255 343.585 112.255ZM343.585 113.551C343.045 113.551 342.697 113.827 342.529 114.199C342.421 114.427 342.409 114.595 342.397 114.871H344.761C344.749 114.595 344.737 114.427 344.629 114.199C344.461 113.827 344.113 113.551 343.585 113.551ZM349.707 110.035V112.879C350.115 112.423 350.583 112.255 351.231 112.255C351.855 112.255 352.383 112.459 352.743 112.819C353.331 113.431 353.391 114.403 353.391 115.447C353.391 116.503 353.331 117.475 352.743 118.087C352.383 118.447 351.843 118.651 351.219 118.651C350.559 118.651 350.103 118.471 349.659 117.991V118.579H348.147V110.035H349.707ZM350.763 113.659C349.827 113.659 349.707 114.439 349.707 115.447C349.707 116.467 349.827 117.247 350.763 117.247C351.711 117.247 351.831 116.467 351.831 115.447C351.831 114.439 351.711 113.659 350.763 113.659ZM360.302 115.447C360.302 116.575 360.17 117.295 359.594 117.883C359.198 118.291 358.574 118.651 357.65 118.651C356.726 118.651 356.114 118.291 355.718 117.883C355.154 117.283 355.01 116.575 355.01 115.447C355.01 114.319 355.154 113.623 355.718 113.023C356.114 112.615 356.726 112.255 357.65 112.255C358.574 112.255 359.198 112.603 359.594 113.023C360.158 113.623 360.302 114.319 360.302 115.447ZM358.742 115.447C358.742 114.811 358.706 114.247 358.382 113.935C358.202 113.755 357.962 113.659 357.65 113.659C357.35 113.659 357.11 113.755 356.93 113.935C356.606 114.247 356.57 114.811 356.57 115.447C356.57 116.095 356.606 116.659 356.93 116.971C357.11 117.151 357.35 117.247 357.65 117.247C357.962 117.247 358.202 117.151 358.382 116.971C358.706 116.659 358.742 116.095 358.742 115.447Z" fill="#898989"/>
<path d="M57.7285 213.315H63.2508V212.21H64.9075V211.658H66.0119V211.106H67.6686H69.8775V210.554H72.6387V210.001H75.3998V209.449H77.6087V208.897H81.4743H82.0266V207.792H84.7877H85.3399V206.688H88.6533V206.136H90.31H91.4144V205.031H95.8322V204.479H96.9367V203.375H98.5934H101.907V202.27H107.429V201.718H110.742V201.166H113.504V200.061H115.16V199.509H116.817V198.957H118.474V197.852H122.339H126.205V196.748H129.518H131.175V196.196H132.832V195.091H135.04V194.539H138.354V193.434H142.219H142.772V192.882H146.637V192.33H148.294V191.778H148.846V191.226H149.951V190.673H150.503H151.055V190.121H152.712V189.569H156.577V188.464H159.891H160.995V187.912H165.413V187.36H166.517V186.256H168.726V185.151H170.935H173.144V184.599H174.801V183.494H178.114V182.942H179.219V181.838H181.98H184.189V180.733H186.95V180.181H189.159V179.629H194.681V179.077H196.89V177.972H200.756V177.42H203.517V176.868H205.173V176.315H207.935V175.763H211.248V175.211H214.009V174.106H216.77V173.554H221.74V173.002H223.397V171.898H225.054H229.471V170.793H234.441H235.546V170.241H243.277V169.689H246.59V169.136H250.456V168.584H254.874V167.48H258.74V166.928H259.844V166.375H261.501V165.823H263.71V165.271H265.366V164.719H267.575V164.166H269.784H279.724V163.614H281.381V163.062H285.246V162.51H289.664V161.957H290.217V161.405H300.709V160.853H304.022V160.301H304.574V159.749H306.231V159.196H308.44V158.092H309.544V157.54H310.097V156.435H312.858V155.883H316.723H318.38V155.331H318.932V154.226H322.798H331.081V153.122H333.29V152.57H336.604V152.017H339.365V150.913H341.574V150.361H348.753V149.256H359.797V147.6H365.32V145.391H375.812H376.364" stroke="#009ADE" stroke-width="2"/>
</svg>
